<mxfile host="Electron" modified="2024-05-22T22:33:11.022Z" agent="Mozilla/5.0 (Windows NT 10.0; Win64; x64) AppleWebKit/537.36 (KHTML, like Gecko) draw.io/24.4.6 Chrome/124.0.6367.207 Electron/30.0.6 Safari/537.36" etag="oph864T5YmhILXncsIUF" version="24.4.6" type="device" pages="2">
  <diagram name="MenuWindow" id="Nj7_oMIQiQCQPewl4Rq0">
    <mxGraphModel dx="1098" dy="828" grid="1" gridSize="10" guides="1" tooltips="1" connect="1" arrows="1" fold="1" page="1" pageScale="1" pageWidth="850" pageHeight="1100" math="0" shadow="0">
      <root>
        <mxCell id="0" />
        <mxCell id="1" parent="0" />
        <mxCell id="xiGU14xy3D7MtQLk_Ugo-1" value="Player" style="shape=umlActor;verticalLabelPosition=bottom;verticalAlign=top;html=1;outlineConnect=0;" parent="1" vertex="1">
          <mxGeometry x="30" y="310" width="30" height="60" as="geometry" />
        </mxCell>
        <mxCell id="xiGU14xy3D7MtQLk_Ugo-2" value="" style="rounded=0;whiteSpace=wrap;html=1;" parent="1" vertex="1">
          <mxGeometry x="110" y="90" width="490" height="610" as="geometry" />
        </mxCell>
        <mxCell id="xiGU14xy3D7MtQLk_Ugo-4" value="Enter name" style="ellipse;whiteSpace=wrap;html=1;" parent="1" vertex="1">
          <mxGeometry x="150" y="120" width="120" height="80" as="geometry" />
        </mxCell>
        <mxCell id="xiGU14xy3D7MtQLk_Ugo-5" value="Select difficulty" style="ellipse;whiteSpace=wrap;html=1;" parent="1" vertex="1">
          <mxGeometry x="150" y="230" width="120" height="80" as="geometry" />
        </mxCell>
        <mxCell id="xiGU14xy3D7MtQLk_Ugo-6" value="Select towers" style="ellipse;whiteSpace=wrap;html=1;" parent="1" vertex="1">
          <mxGeometry x="150" y="340" width="120" height="80" as="geometry" />
        </mxCell>
        <mxCell id="xiGU14xy3D7MtQLk_Ugo-7" value="Click Play button" style="ellipse;whiteSpace=wrap;html=1;" parent="1" vertex="1">
          <mxGeometry x="150" y="450" width="120" height="80" as="geometry" />
        </mxCell>
        <mxCell id="xiGU14xy3D7MtQLk_Ugo-10" value="" style="endArrow=none;html=1;rounded=0;entryX=0;entryY=0.5;entryDx=0;entryDy=0;" parent="1" target="xiGU14xy3D7MtQLk_Ugo-4" edge="1">
          <mxGeometry width="50" height="50" relative="1" as="geometry">
            <mxPoint x="60" y="310" as="sourcePoint" />
            <mxPoint x="-20" y="210" as="targetPoint" />
          </mxGeometry>
        </mxCell>
        <mxCell id="xiGU14xy3D7MtQLk_Ugo-11" value="" style="endArrow=none;html=1;rounded=0;entryX=0.017;entryY=0.588;entryDx=0;entryDy=0;entryPerimeter=0;" parent="1" target="xiGU14xy3D7MtQLk_Ugo-5" edge="1">
          <mxGeometry width="50" height="50" relative="1" as="geometry">
            <mxPoint x="70" y="320" as="sourcePoint" />
            <mxPoint x="310" y="340" as="targetPoint" />
          </mxGeometry>
        </mxCell>
        <mxCell id="xiGU14xy3D7MtQLk_Ugo-12" value="" style="endArrow=none;html=1;rounded=0;entryX=0;entryY=0.5;entryDx=0;entryDy=0;" parent="1" target="xiGU14xy3D7MtQLk_Ugo-6" edge="1">
          <mxGeometry width="50" height="50" relative="1" as="geometry">
            <mxPoint x="70" y="340" as="sourcePoint" />
            <mxPoint x="70" y="440" as="targetPoint" />
          </mxGeometry>
        </mxCell>
        <mxCell id="xiGU14xy3D7MtQLk_Ugo-13" value="" style="endArrow=none;html=1;rounded=0;entryX=0;entryY=0.5;entryDx=0;entryDy=0;" parent="1" target="xiGU14xy3D7MtQLk_Ugo-7" edge="1">
          <mxGeometry width="50" height="50" relative="1" as="geometry">
            <mxPoint x="70" y="360" as="sourcePoint" />
            <mxPoint x="80" y="440" as="targetPoint" />
          </mxGeometry>
        </mxCell>
        <mxCell id="IcL6Sg8LQaW8cUDSeRpv-1" value="Validate inputs" style="ellipse;whiteSpace=wrap;html=1;" vertex="1" parent="1">
          <mxGeometry x="380" y="455" width="140" height="70" as="geometry" />
        </mxCell>
        <mxCell id="IcL6Sg8LQaW8cUDSeRpv-2" value="System" style="shape=umlActor;verticalLabelPosition=bottom;verticalAlign=top;html=1;" vertex="1" parent="1">
          <mxGeometry x="670" y="310" width="30" height="60" as="geometry" />
        </mxCell>
        <mxCell id="IcL6Sg8LQaW8cUDSeRpv-3" value="Display errors" style="ellipse;whiteSpace=wrap;html=1;" vertex="1" parent="1">
          <mxGeometry x="380" y="320" width="140" height="70" as="geometry" />
        </mxCell>
        <mxCell id="IcL6Sg8LQaW8cUDSeRpv-4" value="Continue to game" style="ellipse;whiteSpace=wrap;html=1;" vertex="1" parent="1">
          <mxGeometry x="380" y="590" width="140" height="70" as="geometry" />
        </mxCell>
        <mxCell id="IcL6Sg8LQaW8cUDSeRpv-9" value="&amp;lt;&amp;lt;include&amp;gt;&amp;gt;" style="endArrow=open;endSize=12;dashed=1;html=1;rounded=0;entryX=0;entryY=0.5;entryDx=0;entryDy=0;exitX=1;exitY=0.5;exitDx=0;exitDy=0;" edge="1" parent="1" source="xiGU14xy3D7MtQLk_Ugo-7" target="IcL6Sg8LQaW8cUDSeRpv-1">
          <mxGeometry x="-0.0909" y="10" width="160" relative="1" as="geometry">
            <mxPoint x="340" y="580" as="sourcePoint" />
            <mxPoint x="230" y="580" as="targetPoint" />
            <mxPoint as="offset" />
          </mxGeometry>
        </mxCell>
        <mxCell id="IcL6Sg8LQaW8cUDSeRpv-10" value="&amp;lt;&amp;lt;extend&amp;gt;&amp;gt;" style="endArrow=open;endSize=12;dashed=1;html=1;rounded=0;entryX=0.5;entryY=0;entryDx=0;entryDy=0;exitX=0.5;exitY=1;exitDx=0;exitDy=0;" edge="1" parent="1" source="IcL6Sg8LQaW8cUDSeRpv-3" target="IcL6Sg8LQaW8cUDSeRpv-1">
          <mxGeometry x="-0.0769" y="40" width="160" relative="1" as="geometry">
            <mxPoint x="320" y="430" as="sourcePoint" />
            <mxPoint x="480" y="430" as="targetPoint" />
            <mxPoint as="offset" />
          </mxGeometry>
        </mxCell>
        <mxCell id="IcL6Sg8LQaW8cUDSeRpv-11" value="&amp;lt;&amp;lt;extend&amp;gt;&amp;gt;" style="endArrow=open;endSize=12;dashed=1;html=1;rounded=0;exitX=0.5;exitY=0;exitDx=0;exitDy=0;entryX=0.5;entryY=1;entryDx=0;entryDy=0;" edge="1" parent="1" source="IcL6Sg8LQaW8cUDSeRpv-4" target="IcL6Sg8LQaW8cUDSeRpv-1">
          <mxGeometry x="-0.0769" y="-40" width="160" relative="1" as="geometry">
            <mxPoint x="200" y="590" as="sourcePoint" />
            <mxPoint x="360" y="590" as="targetPoint" />
            <mxPoint as="offset" />
          </mxGeometry>
        </mxCell>
        <mxCell id="IcL6Sg8LQaW8cUDSeRpv-12" value="" style="endArrow=none;html=1;rounded=0;exitX=1;exitY=0.5;exitDx=0;exitDy=0;" edge="1" parent="1" source="IcL6Sg8LQaW8cUDSeRpv-1">
          <mxGeometry width="50" height="50" relative="1" as="geometry">
            <mxPoint x="470" y="430" as="sourcePoint" />
            <mxPoint x="660" y="350" as="targetPoint" />
          </mxGeometry>
        </mxCell>
        <mxCell id="IcL6Sg8LQaW8cUDSeRpv-13" value="&lt;font style=&quot;font-size: 14px;&quot;&gt;Menu System&lt;/font&gt;" style="text;html=1;align=center;verticalAlign=middle;whiteSpace=wrap;rounded=0;" vertex="1" parent="1">
          <mxGeometry x="287.5" y="100" width="135" height="30" as="geometry" />
        </mxCell>
      </root>
    </mxGraphModel>
  </diagram>
  <diagram id="DbWgk0IVMa8taTwfpjvC" name="Page-2">
    <mxGraphModel grid="1" page="1" gridSize="10" guides="1" tooltips="1" connect="1" arrows="1" fold="1" pageScale="1" pageWidth="850" pageHeight="1100" math="0" shadow="0">
      <root>
        <mxCell id="0" />
        <mxCell id="1" parent="0" />
      </root>
    </mxGraphModel>
  </diagram>
</mxfile>
